<?xml version="1.0" encoding="UTF-8" standalone="no"?>
<svg width="882px" height="150px" viewBox="0 0 882 150" version="1.1" xmlns="http://www.w3.org/2000/svg" xmlns:xlink="http://www.w3.org/1999/xlink" xmlns:sketch="http://www.bohemiancoding.com/sketch/ns">
    <!-- Generator: Sketch 3.2.2 (9983) - http://www.bohemiancoding.com/sketch -->
    <title>lj-logo-882-150</title>
    <desc>Created with Sketch.</desc>
    <defs></defs>
    <g id="Page-1" stroke="none" stroke-width="1" fill="none" fill-rule="evenodd" sketch:type="MSPage">
        <g id="lj-logo" sketch:type="MSLayerGroup">
            <path d="M81.3060025,9.63804996 C71.1972176,9.63804996 61.5907963,11.7022701 52.8712004,15.3937588 L37.1390195,0 L37.1031364,0 C20.4943823,7.12683319 7.18174828,20.2353847 0,36.5633161 L15.7578117,51.9872095 L15.7475594,52.0022768 C11.9439497,60.5605036 9.67818754,69.8821402 9.67818754,79.8165138 C9.67818754,118.589701 41.7423099,150 81.3060025,150 C120.854316,150 152.928691,118.579656 152.928691,79.8165138 C152.928691,41.0634166 120.859443,9.63804996 81.3060025,9.63804996" fill="#00B0EA"></path>
            <path d="M74.0063525,108.966718 C81.1829746,92.6387866 94.505861,79.530235 111.109489,72.3983794 L111.119741,72.3983794 L52.8814527,15.4238934 L52.8558219,15.418871 C36.2368155,22.5507266 22.9241815,35.6542557 15.7475594,51.992232 L74.0063525,108.966718 L74.0063525,108.966718 Z" fill="#15374C"></path>
            <path d="M115.282182,91.8603094 C105.634751,95.9987946 97.9045042,103.627871 93.7266849,113.100181 L120.926083,118.60979 L115.282182,91.8603094 L115.282182,91.8603094 Z" fill="#15374C"></path>
            <path d="M115.282182,91.8703542 C113.093312,81.6396571 111.119741,72.4034019 111.119741,72.4034019 L111.099237,72.4084243 C94.5007348,79.5402799 81.1829746,92.643809 74.0012264,108.97174 L93.7266849,113.100181 C97.9147565,103.658006 105.660382,95.9987946 115.282182,91.8703542" fill="#FFFFFF"></path>
            <rect fill="#FFFFFF" x="255.216061" y="35.7647492" width="12.3489162" height="80.7757986"></rect>
            <path d="M421.970002,115.229693 C421.970002,126.18362 417.638398,130.76408 410.794976,130.76408 L410.794976,140.417197 C430.320515,140.417197 434.318918,129.44318 434.318918,111.960088 L434.318918,35.7647492 L421.964876,35.7647492 L421.970002,115.229693 L421.970002,115.229693 Z" fill="#FFFFFF"></path>
            <path d="M321.481914,74.3621509 C318.713788,83.3221724 316.145583,92.5785174 315.130603,98.2890243 C314.243778,92.4228219 310.024949,81.0721221 307.964234,74.3621509 L295.441028,35.7647492 L283.594475,35.7647492 L309.963435,116.540548 L318.954718,116.540548 L344.477862,35.7647492 L333.651415,35.7647492 L321.481914,74.3621509 L321.481914,74.3621509 Z" fill="#FFFFFF"></path>
            <path d="M400.322234,106.736758 L400.311982,106.736758 L400.311982,106.581062 L370.949345,106.581062 L370.980102,80.0827027 L394.001681,80.0827027 L394.001681,70.1081497 L370.980102,70.1081497 L370.980102,45.7342798 L398.220509,45.7342798 L398.220509,35.7496819 L358.631186,35.7647492 L358.631186,116.54557 L400.311982,116.560638 L400.311982,116.54557 L400.342739,116.54557 L400.322234,106.736758 Z" fill="#FFFFFF"></path>
            <path d="M586.063467,87.2547378 C586.063467,101.799705 581.393536,108.509677 570.864406,108.509677 C560.350655,108.509677 555.685851,101.78966 555.685851,87.2547378 L555.685851,35.7647492 L543.336934,35.7647492 L543.336934,82.6240541 C543.336934,106.802049 549.621605,118.660015 570.777262,118.660015 C593.111935,118.660015 598.212463,104.933704 598.212463,82.8651309 L598.212463,35.7647492 L586.073719,35.7647492 L586.063467,87.2547378 L586.063467,87.2547378 Z" fill="#FFFFFF"></path>
            <path d="M792.714301,35.7647492 L765.504651,116.540548 L776.331098,116.540548 L781.990377,99.6953057 L812.388498,99.6953057 L818.206688,116.540548 L830.058367,116.540548 L802.023405,35.7647492 L792.714301,35.7647492 L792.714301,35.7647492 Z M809.020612,90.0271211 L785.250614,90.0271211 L789.336162,77.9481685 C792.427236,68.6365767 795.85151,56.1206723 797.015148,50.4302551 C798.045506,56.0051564 802.341227,70.6505726 804.847918,77.9481685 L809.020612,90.0271211 L809.020612,90.0271211 Z" fill="#FFFFFF"></path>
            <path d="M489.666053,35.7647492 C466.946918,35.7647492 454.941455,51.9570749 454.941455,77.1295118 C454.941455,102.311994 466.957171,118.660015 489.666053,118.660015 C512.344179,118.660015 524.375274,102.311994 524.375274,77.1295118 C524.385526,51.9570749 512.344179,35.7647492 489.666053,35.7647492 M489.666053,108.017478 C475.810047,108.017478 468.131061,97.068573 468.131061,77.1295118 C468.131061,57.1904507 475.810047,46.2616353 489.666053,46.2616353 C503.511808,46.2616353 511.190794,57.1854282 511.190794,77.1295118 C511.19592,97.0735954 503.516934,108.017478 489.666053,108.017478" fill="#FFFFFF"></path>
            <path d="M673.090262,60.4550325 C673.090262,41.6560638 657.891202,35.7647492 637.535226,35.7647492 L623.099963,35.7647492 L623.099963,116.540548 L635.459132,116.540548 L635.459132,86.14478 L642.94845,86.14478 C646.239443,86.14478 649.120345,85.8685462 649.120345,85.8685462 L663.909312,116.530503 L677.078414,116.530503 L660.526048,82.1067435 C668.779163,77.8878993 673.090262,70.3040246 673.090262,60.4550325 M643.21501,76.1501373 L635.459132,76.1501373 L635.459132,45.9653117 L643.21501,45.9653117 C654.728362,45.9653117 660.73622,52.1228152 660.73622,61.6001473 C660.73622,71.0774794 654.390036,76.1501373 643.21501,76.1501373" fill="#FFFFFF"></path>
            <path d="M739.099807,59.7016674 C739.099807,70.1684189 739.330485,89.3290029 739.8431,94.2560102 C737.608095,89.5449675 735.449982,85.2708766 732.471684,80.7105069 L702.724586,35.7647492 L695.547963,35.7647492 L695.547963,116.540548 L706.230878,116.540548 L706.230878,87.4104333 C706.230878,70.8313802 705.64137,61.3691154 705.149259,57.7027389 C706.48206,60.8116253 710.926439,68.2649166 713.099931,71.5445657 L742.785516,116.535525 L749.803227,116.535525 L749.803227,35.7647492 L739.099807,35.7647492 L739.099807,59.7016674 L739.099807,59.7016674 Z" fill="#FFFFFF"></path>
            <path d="M237.187361,106.581062 L211.336143,106.581062 L211.336143,35.7647492 L198.971848,35.7647492 L198.971848,116.54557 L237.187361,116.54557 L237.187361,106.581062 Z" fill="#FFFFFF" sketch:type="MSShapeGroup"></path>
            <path d="M858.093328,106.581062 L858.093328,35.7647492 L845.73416,35.7647492 L845.73416,116.54557 L881.878704,116.54557 L881.878704,106.571017 L858.093328,106.581062 Z" fill="#FFFFFF"></path>
        </g>
    </g>
</svg>