<?xml version="1.0" encoding="UTF-8" standalone="no"?>
<svg width="857px" height="149px" viewBox="0 0 857 149" version="1.1" xmlns="http://www.w3.org/2000/svg" xmlns:xlink="http://www.w3.org/1999/xlink" xmlns:sketch="http://www.bohemiancoding.com/sketch/ns">
    <!-- Generator: Sketch 3.2.2 (9983) - http://www.bohemiancoding.com/sketch -->
    <title>lj-logo857</title>
    <desc>Created with Sketch.</desc>
    <defs></defs>
    <g id="Page-1" stroke="none" stroke-width="1" fill="none" fill-rule="evenodd" sketch:type="MSPage">
        <g id="lj-logo" sketch:type="MSLayerGroup">
            <path d="M79.0014105,9.55826914 C69.1791559,9.55826914 59.8450254,11.6054023 51.3725836,15.266334 L36.0863262,0 L36.0514602,0 C19.9134758,7.06783945 6.97818398,20.0678824 0,36.2606562 L15.3111617,51.5568754 L15.3012,51.571818 C11.6054023,60.0592023 9.4038625,69.3036773 9.4038625,79.1558172 C9.4038625,117.608052 40.5591379,148.758346 79.0014105,148.758346 C117.428741,148.758346 148.593978,117.59809 148.593978,79.1558172 C148.593978,40.7235062 117.433721,9.55826914 79.0014105,9.55826914" fill="#00B0EA"></path>
            <path d="M71.9086668,108.064725 C78.8818699,91.8719512 91.8271234,78.8719082 107.960127,71.7990879 L107.970089,71.7990879 L51.3825453,15.2962191 L51.357641,15.2912383 C35.2096949,22.3640586 22.2744031,35.3591207 15.3012,51.5618563 L71.9086668,108.064725 L71.9086668,108.064725 Z" fill="#15374C"></path>
            <path d="M112.014546,91.099918 C102.640569,95.2041461 95.1294332,102.770071 91.0700328,112.163972 L117.498473,117.627975 L112.014546,91.099918 L112.014546,91.099918 Z" fill="#15374C"></path>
            <path d="M112.014546,91.1098797 C109.88772,80.9638691 107.970089,71.8040687 107.970089,71.8040687 L107.950165,71.8090496 C91.8221426,78.8818699 78.8818699,91.876932 71.9036859,108.069706 L91.0700328,112.163972 C95.1393949,102.799957 102.665473,95.2041461 112.014546,91.1098797" fill="#FFFFFF"></path>
            <rect id="Rectangle-path" fill="#FFFFFF" x="247.982046" y="35.4686996" width="11.9988902" height="80.1071613"></rect>
            <path d="M410.009401,114.275857 C410.009401,125.139111 405.800575,129.681655 399.151128,129.681655 L399.151128,139.254866 C418.123221,139.254866 422.008291,128.371689 422.008291,111.033317 L422.008291,35.4686996 L410.00442,35.4686996 L410.009401,114.275857 L410.009401,114.275857 Z" fill="#FFFFFF"></path>
            <path d="M312.369615,73.7466039 C309.679951,82.632457 307.18454,91.8121809 306.19833,97.475418 C305.336641,91.6577742 301.237394,80.401032 299.235089,73.7466039 L287.066849,35.4686996 L275.556083,35.4686996 L301.177624,115.575861 L309.914051,115.575861 L334.71375,35.4686996 L324.194175,35.4686996 L312.369615,73.7466039 L312.369615,73.7466039 Z" fill="#FFFFFF"></path>
            <path d="M388.975232,105.853223 L388.96527,105.853223 L388.96527,105.698817 L360.434908,105.698817 L360.464793,79.4198027 L382.833832,79.4198027 L382.833832,69.527816 L360.464793,69.527816 L360.464793,45.3557055 L386.93308,45.3557055 L386.93308,35.453757 L348.465903,35.4686996 L348.465903,115.580842 L388.96527,115.595784 L388.96527,115.580842 L388.995155,115.580842 L388.975232,105.853223 Z" fill="#FFFFFF"></path>
            <path d="M569.451691,86.5324699 C569.451691,100.957039 564.914128,107.611467 554.683443,107.611467 C544.4677,107.611467 539.935118,100.947077 539.935118,86.5324699 L539.935118,35.4686996 L527.936228,35.4686996 L527.936228,81.9401176 C527.936228,105.917975 534.042761,117.677784 554.598768,117.677784 C576.300372,117.677784 581.256327,104.065095 581.256327,82.1791988 L581.256327,35.4686996 L569.461652,35.4686996 L569.451691,86.5324699 L569.451691,86.5324699 Z" fill="#FFFFFF"></path>
            <path d="M770.245075,35.4686996 L743.806673,115.575861 L754.326248,115.575861 L759.825117,98.8700586 L789.361613,98.8700586 L795.014888,115.575861 L806.530635,115.575861 L779.290315,35.4686996 L770.245075,35.4686996 L770.245075,35.4686996 Z M786.089188,89.2819043 L762.992943,89.2819043 L766.962688,77.3029375 C769.966146,68.0684242 773.293361,55.6561227 774.424016,50.012809 C775.425168,55.5415629 779.599129,70.0657488 782.034769,77.3029375 L786.089188,89.2819043 L786.089188,89.2819043 Z" fill="#FFFFFF"></path>
            <path d="M475.78663,35.4686996 C453.711461,35.4686996 442.046289,51.5269902 442.046289,76.4910574 C442.046289,101.465086 453.721423,117.677784 475.78663,117.677784 C497.821952,117.677784 509.512029,101.465086 509.512029,76.4910574 C509.521991,51.5269902 497.821952,35.4686996 475.78663,35.4686996 M475.78663,107.123343 C462.323367,107.123343 454.86204,96.2650691 454.86204,76.4910574 C454.86204,56.7170457 462.323367,45.8786957 475.78663,45.8786957 C489.239931,45.8786957 496.701259,56.7120648 496.701259,76.4910574 C496.706239,96.27005 489.244912,107.123343 475.78663,107.123343" fill="#FFFFFF"></path>
            <path d="M654.01174,59.9546043 C654.01174,41.3112477 639.243492,35.4686996 619.4645,35.4686996 L605.4384,35.4686996 L605.4384,115.575861 L617.447252,115.575861 L617.447252,85.4317 L624.724287,85.4317 C627.921999,85.4317 630.721242,85.1577527 630.721242,85.1577527 L645.091021,115.565899 L657.886849,115.565899 L641.803654,81.4270891 C649.822838,77.2431672 654.01174,69.7220695 654.01174,59.9546043 M624.983292,75.5197898 L617.447252,75.5197898 L617.447252,45.584825 L624.983292,45.584825 C636.170302,45.584825 642.007869,51.6913586 642.007869,61.0902402 C642.007869,70.4891219 635.841565,75.5197898 624.983292,75.5197898" fill="#FFFFFF"></path>
            <path d="M718.150266,59.2074754 C718.150266,69.5875863 718.374405,88.5895648 718.872491,93.4757879 C716.700836,88.8037418 714.603895,84.5650305 711.710015,80.0424102 L682.806088,35.4686996 L675.832885,35.4686996 L675.832885,115.575861 L686.212996,115.575861 L686.212996,86.6868766 C686.212996,70.2450598 685.640197,60.8611207 685.162035,57.2250934 C686.457058,60.3082453 690.775463,67.6998406 692.887348,70.9523418 L721.731504,115.57088 L728.550301,115.57088 L728.550301,35.4686996 L718.150266,35.4686996 L718.150266,59.2074754 L718.150266,59.2074754 Z" fill="#FFFFFF"></path>
            <path d="M230.464363,105.698817 L205.345889,105.698817 L205.345889,35.4686996 L193.332057,35.4686996 L193.332057,115.580842 L230.464363,115.580842 L230.464363,105.698817 Z" fill="#FFFFFF"></path>
            <path d="M833.770955,105.698817 L833.770955,35.4686996 L821.762103,35.4686996 L821.762103,115.580842 L856.882143,115.580842 L856.882143,105.688855 L833.770955,105.698817 Z" fill="#FFFFFF"></path>
        </g>
    </g>
</svg>